<svg width="339" height="316" viewBox="0 0 339 316" fill="none" xmlns="http://www.w3.org/2000/svg">
<path fill-rule="evenodd" clip-rule="evenodd" d="M187.087 25.4082C214.426 28.4359 242.839 10.3621 268.093 21.2354C293.77 32.2906 309.513 58.5317 321.999 83.4938C334.04 107.568 341.727 134.53 338.095 161.188C334.644 186.507 317.623 207.052 302.364 227.576C288.493 246.235 271.916 261.583 253.191 275.395C232.495 290.66 212.419 308.051 187.087 312.602C159.67 317.528 128.699 317.496 105.639 301.905C82.7717 286.446 82.5028 253.042 66.1442 230.839C47.0988 204.988 9.54451 192.365 1.96486 161.188C-5.69364 129.688 10.3952 96.861 26.7639 68.8595C43.0928 40.926 63.7009 10.5419 94.9838 2.06356C126.082 -6.36481 155.058 21.861 187.087 25.4082Z" fill="#3366FF" fill-opacity="0.85"/>
<path fill-rule="evenodd" clip-rule="evenodd" d="M249.69 84.6435C246.766 81.2112 244.787 77.0048 245.118 72.2914C246.07 58.7109 264.975 61.6985 268.652 68.5527C272.33 75.407 271.893 92.7935 267.14 94.0185C265.245 94.5071 261.207 93.3103 257.098 90.8334L259.677 109.081H244.447L249.69 84.6435Z" fill="#B28B67"/>
<path fill-rule="evenodd" clip-rule="evenodd" d="M257.859 73.7914C258.442 81.9124 259.984 85.9728 262.486 85.9728C266.238 85.9728 269.421 83.5908 271.068 83.5908C272.268 83.5908 272 85.0927 271.204 86.2062C270.548 87.1249 267.352 88.0105 267.352 89.4348C267.352 90.8591 269.877 89.7572 269.877 90.6019C269.877 91.9992 270.321 94.6263 267.896 94.6263C265.442 94.6263 258.405 93.7319 257.199 90.0893C256.42 87.7384 255.917 82.8671 255.689 75.4751C255.54 75.4575 255.389 75.4484 255.235 75.4484C253.132 75.4484 251.427 77.153 251.427 79.2559C251.427 80.3234 251.867 81.2883 252.575 81.9797C251.693 83.2232 250.706 84.5223 249.575 85.8627C245.324 83.3126 242.17 75.8475 246.326 68.6762C247.474 65.1631 250.075 63.2866 253.146 62.4153C255.633 61.3747 258.216 61.2574 260.396 61.8812C264.669 62.2477 268.485 63.5508 269.566 64.3246C269.566 68.3702 268.782 69.5706 262.087 69.4648C260.441 70.3336 259.177 71.8298 257.859 73.7914Z" fill="#191847"/>
<path fill-rule="evenodd" clip-rule="evenodd" d="M239.37 161.753L262.377 242.49L279.163 301.997H291.407L273.569 161.753H239.37Z" fill="#191847"/>
<path fill-rule="evenodd" clip-rule="evenodd" d="M233.218 161.753C232.685 203.365 230.871 226.062 230.312 229.843C229.753 233.623 221.305 257.675 204.967 301.997H217.65C238.45 259.478 250.06 235.426 252.482 229.843C254.905 224.259 262.38 201.563 273.638 161.753H233.218Z" fill="#2F3676"/>
<path fill-rule="evenodd" clip-rule="evenodd" d="M203.833 313.42L204.468 300.093H217.794C224.113 304.535 232.363 308.131 242.543 310.881V313.42H218.429L210.179 312.15V313.42H203.833Z" fill="#191847"/>
<path fill-rule="evenodd" clip-rule="evenodd" d="M277.446 313.42L278.08 300.093H291.407C297.726 304.535 305.975 308.131 316.156 310.881V313.42H292.041L283.792 312.15V313.42H277.446Z" fill="#191847"/>
<path fill-rule="evenodd" clip-rule="evenodd" d="M292.904 151.352L312.06 167.592C317.433 169.453 321.88 171.611 325.401 174.068C326.214 174.919 327.151 176.594 323.57 176.066C319.99 175.537 316.2 175.142 315.617 176.335C315.035 177.529 317.111 179.149 315.991 180.736C315.244 181.793 312.275 178.803 307.085 171.764L287.668 162.074L292.904 151.352ZM206.16 144.324L217.4 145.956C205.335 172.133 198.867 185.977 197.996 187.487C196.035 190.887 198.341 196.807 199.242 199.942C194.687 201.257 196.142 194.219 190.382 195.974C185.124 197.577 180.786 201.209 175.579 196.89C174.939 196.359 174.4 194.622 176.434 193.611C181.504 191.09 188.947 186.478 190.103 184.778C191.681 182.46 197.034 168.975 206.16 144.324Z" fill="#B28B67"/>
<path fill-rule="evenodd" clip-rule="evenodd" d="M253.138 98.5042L260.102 96.201C269.55 119.802 283.64 142.636 307.181 161.924L301.359 171.967C280.67 159.78 261.085 150.313 253.138 132.025C250.47 125.887 252.92 105.843 253.138 98.5042Z" fill="#C5CFD6"/>
<path fill-rule="evenodd" clip-rule="evenodd" d="M229.217 164.926C249.167 167.041 264.87 167.041 276.326 164.926C277.746 164.663 277.97 162.287 277.311 160.674C267.061 135.56 260.033 113.645 260.033 96.2011C258.152 97.1493 254.86 97.2914 250.158 96.6274C237.521 114.604 231.712 135.231 229.217 164.926Z" fill="#323337"/>
<path fill-rule="evenodd" clip-rule="evenodd" d="M247.017 95.1205H252.283C253.509 102.333 257.377 199.995 269.317 231.942H204.712C206.113 202.675 217.161 167.519 228.354 138.1C218.457 147.157 209.831 162.502 202.476 184.136L190.375 181.03C199.373 142.259 217.872 113.762 245.872 95.5387C245.933 95.3987 245.993 95.2593 246.053 95.1205H246.52C246.691 95.0104 246.863 94.9007 247.035 94.7914L247.017 95.1205Z" fill="#DDE3E9"/>
<path d="M39.128 90.788C37.384 90.788 35.808 90.412 34.4 89.66C33.008 88.908 31.912 87.876 31.112 86.564C30.328 85.236 29.936 83.748 29.936 82.1C29.936 80.452 30.328 78.972 31.112 77.66C31.912 76.332 33.008 75.292 34.4 74.54C35.808 73.788 37.384 73.412 39.128 73.412C40.872 73.412 42.44 73.788 43.832 74.54C45.224 75.292 46.32 76.332 47.12 77.66C47.92 78.972 48.32 80.452 48.32 82.1C48.32 83.748 47.92 85.236 47.12 86.564C46.32 87.876 45.224 88.908 43.832 89.66C42.44 90.412 40.872 90.788 39.128 90.788ZM39.128 87.476C40.12 87.476 41.016 87.252 41.816 86.804C42.616 86.34 43.24 85.7 43.688 84.884C44.152 84.068 44.384 83.14 44.384 82.1C44.384 81.06 44.152 80.132 43.688 79.316C43.24 78.5 42.616 77.868 41.816 77.42C41.016 76.956 40.12 76.724 39.128 76.724C38.136 76.724 37.24 76.956 36.44 77.42C35.64 77.868 35.008 78.5 34.544 79.316C34.096 80.132 33.872 81.06 33.872 82.1C33.872 83.14 34.096 84.068 34.544 84.884C35.008 85.7 35.64 86.34 36.44 86.804C37.24 87.252 38.136 87.476 39.128 87.476ZM54.554 79.292C55.002 78.668 55.602 78.196 56.354 77.876C57.122 77.556 58.002 77.396 58.994 77.396V80.852C58.578 80.82 58.298 80.804 58.154 80.804C57.082 80.804 56.242 81.108 55.634 81.716C55.026 82.308 54.722 83.204 54.722 84.404V90.5H50.978V77.588H54.554V79.292ZM74.255 72.692V90.5H70.679V89.012C69.751 90.132 68.407 90.692 66.647 90.692C65.431 90.692 64.327 90.42 63.335 89.876C62.359 89.332 61.591 88.556 61.031 87.548C60.471 86.54 60.191 85.372 60.191 84.044C60.191 82.716 60.471 81.548 61.031 80.54C61.591 79.532 62.359 78.756 63.335 78.212C64.327 77.668 65.431 77.396 66.647 77.396C68.295 77.396 69.583 77.916 70.511 78.956V72.692H74.255ZM67.295 87.62C68.239 87.62 69.023 87.3 69.647 86.66C70.271 86.004 70.583 85.132 70.583 84.044C70.583 82.956 70.271 82.092 69.647 81.452C69.023 80.796 68.239 80.468 67.295 80.468C66.335 80.468 65.543 80.796 64.919 81.452C64.295 82.092 63.983 82.956 63.983 84.044C63.983 85.132 64.295 86.004 64.919 86.66C65.543 87.3 66.335 87.62 67.295 87.62ZM90.3682 84.092C90.3682 84.14 90.3442 84.476 90.2962 85.1H80.5282C80.7042 85.9 81.1202 86.532 81.7762 86.996C82.4322 87.46 83.2482 87.692 84.2242 87.692C84.8962 87.692 85.4882 87.596 86.0002 87.404C86.5282 87.196 87.0162 86.876 87.4642 86.444L89.4562 88.604C88.2402 89.996 86.4642 90.692 84.1282 90.692C82.6722 90.692 81.3842 90.412 80.2642 89.852C79.1442 89.276 78.2802 88.484 77.6722 87.476C77.0642 86.468 76.7602 85.324 76.7602 84.044C76.7602 82.78 77.0562 81.644 77.6482 80.636C78.2562 79.612 79.0802 78.82 80.1202 78.26C81.1762 77.684 82.3522 77.396 83.6482 77.396C84.9122 77.396 86.0562 77.668 87.0802 78.212C88.1042 78.756 88.9042 79.54 89.4802 80.564C90.0722 81.572 90.3682 82.748 90.3682 84.092ZM83.6722 80.228C82.8242 80.228 82.1122 80.468 81.5362 80.948C80.9602 81.428 80.6082 82.084 80.4802 82.916H86.8402C86.7122 82.1 86.3602 81.452 85.7842 80.972C85.2082 80.476 84.5042 80.228 83.6722 80.228ZM96.4368 79.292C96.8848 78.668 97.4848 78.196 98.2368 77.876C99.0048 77.556 99.8848 77.396 100.877 77.396V80.852C100.461 80.82 100.181 80.804 100.037 80.804C98.9648 80.804 98.1248 81.108 97.5168 81.716C96.9088 82.308 96.6048 83.204 96.6048 84.404V90.5H92.8608V77.588H96.4368V79.292ZM122.81 77.588L117.362 90.5H113.498L108.074 77.588H111.938L115.514 86.372L119.21 77.588H122.81ZM129.124 77.396C131.124 77.396 132.66 77.876 133.732 78.836C134.804 79.78 135.34 81.212 135.34 83.132V90.5H131.836V88.892C131.132 90.092 129.82 90.692 127.9 90.692C126.908 90.692 126.044 90.524 125.308 90.188C124.588 89.852 124.036 89.388 123.652 88.796C123.268 88.204 123.076 87.532 123.076 86.78C123.076 85.58 123.524 84.636 124.42 83.948C125.332 83.26 126.732 82.916 128.62 82.916H131.596C131.596 82.1 131.348 81.476 130.852 81.044C130.356 80.596 129.612 80.372 128.62 80.372C127.932 80.372 127.252 80.484 126.58 80.708C125.924 80.916 125.364 81.204 124.9 81.572L123.556 78.956C124.26 78.46 125.1 78.076 126.076 77.804C127.068 77.532 128.084 77.396 129.124 77.396ZM128.836 88.172C129.476 88.172 130.044 88.028 130.54 87.74C131.036 87.436 131.388 86.996 131.596 86.42V85.1H129.028C127.492 85.1 126.724 85.604 126.724 86.612C126.724 87.092 126.908 87.476 127.276 87.764C127.66 88.036 128.18 88.172 128.836 88.172ZM145.109 90.692C143.733 90.692 142.493 90.412 141.389 89.852C140.301 89.276 139.445 88.484 138.821 87.476C138.213 86.468 137.909 85.324 137.909 84.044C137.909 82.764 138.213 81.62 138.821 80.612C139.445 79.604 140.301 78.82 141.389 78.26C142.493 77.684 143.733 77.396 145.109 77.396C146.469 77.396 147.653 77.684 148.661 78.26C149.685 78.82 150.429 79.628 150.893 80.684L147.989 82.244C147.317 81.06 146.349 80.468 145.085 80.468C144.109 80.468 143.301 80.788 142.661 81.428C142.021 82.068 141.701 82.94 141.701 84.044C141.701 85.148 142.021 86.02 142.661 86.66C143.301 87.3 144.109 87.62 145.085 87.62C146.365 87.62 147.333 87.028 147.989 85.844L150.893 87.428C150.429 88.452 149.685 89.252 148.661 89.828C147.653 90.404 146.469 90.692 145.109 90.692ZM159.124 90.692C157.748 90.692 156.508 90.412 155.404 89.852C154.316 89.276 153.46 88.484 152.836 87.476C152.228 86.468 151.924 85.324 151.924 84.044C151.924 82.764 152.228 81.62 152.836 80.612C153.46 79.604 154.316 78.82 155.404 78.26C156.508 77.684 157.748 77.396 159.124 77.396C160.484 77.396 161.668 77.684 162.676 78.26C163.7 78.82 164.444 79.628 164.908 80.684L162.004 82.244C161.332 81.06 160.364 80.468 159.1 80.468C158.124 80.468 157.316 80.788 156.676 81.428C156.036 82.068 155.716 82.94 155.716 84.044C155.716 85.148 156.036 86.02 156.676 86.66C157.316 87.3 158.124 87.62 159.1 87.62C160.38 87.62 161.348 87.028 162.004 85.844L164.908 87.428C164.444 88.452 163.7 89.252 162.676 89.828C161.668 90.404 160.484 90.692 159.124 90.692ZM167.064 77.588H170.808V90.5H167.064V77.588ZM168.936 75.788C168.248 75.788 167.688 75.588 167.256 75.188C166.824 74.788 166.608 74.292 166.608 73.7C166.608 73.108 166.824 72.612 167.256 72.212C167.688 71.812 168.248 71.612 168.936 71.612C169.624 71.612 170.184 71.804 170.616 72.188C171.048 72.572 171.264 73.052 171.264 73.628C171.264 74.252 171.048 74.772 170.616 75.188C170.184 75.588 169.624 75.788 168.936 75.788ZM182.131 77.396C183.731 77.396 185.019 77.876 185.995 78.836C186.987 79.796 187.483 81.22 187.483 83.108V90.5H183.739V83.684C183.739 82.66 183.515 81.9 183.067 81.404C182.619 80.892 181.971 80.636 181.123 80.636C180.179 80.636 179.427 80.932 178.867 81.524C178.307 82.1 178.027 82.964 178.027 84.116V90.5H174.283V77.588H177.859V79.1C178.355 78.556 178.971 78.14 179.707 77.852C180.443 77.548 181.251 77.396 182.131 77.396ZM203.665 84.092C203.665 84.14 203.641 84.476 203.593 85.1H193.825C194.001 85.9 194.417 86.532 195.073 86.996C195.729 87.46 196.545 87.692 197.521 87.692C198.193 87.692 198.785 87.596 199.297 87.404C199.825 87.196 200.313 86.876 200.761 86.444L202.753 88.604C201.537 89.996 199.761 90.692 197.425 90.692C195.969 90.692 194.681 90.412 193.561 89.852C192.441 89.276 191.577 88.484 190.969 87.476C190.361 86.468 190.057 85.324 190.057 84.044C190.057 82.78 190.353 81.644 190.945 80.636C191.553 79.612 192.377 78.82 193.417 78.26C194.473 77.684 195.649 77.396 196.945 77.396C198.209 77.396 199.353 77.668 200.377 78.212C201.401 78.756 202.201 79.54 202.777 80.564C203.369 81.572 203.665 82.748 203.665 84.092ZM196.969 80.228C196.121 80.228 195.409 80.468 194.833 80.948C194.257 81.428 193.905 82.084 193.777 82.916H200.137C200.009 82.1 199.657 81.452 199.081 80.972C198.505 80.476 197.801 80.228 196.969 80.228ZM210.502 90.692C209.43 90.692 208.382 90.564 207.358 90.308C206.334 90.036 205.518 89.7 204.91 89.3L206.158 86.612C206.734 86.98 207.43 87.284 208.246 87.524C209.062 87.748 209.862 87.86 210.646 87.86C212.23 87.86 213.022 87.468 213.022 86.684C213.022 86.316 212.806 86.052 212.374 85.892C211.942 85.732 211.278 85.596 210.382 85.484C209.326 85.324 208.454 85.14 207.766 84.932C207.078 84.724 206.478 84.356 205.966 83.828C205.47 83.3 205.222 82.548 205.222 81.572C205.222 80.756 205.454 80.036 205.918 79.412C206.398 78.772 207.086 78.276 207.982 77.924C208.894 77.572 209.966 77.396 211.198 77.396C212.11 77.396 213.014 77.5 213.91 77.708C214.822 77.9 215.574 78.172 216.166 78.524L214.918 81.188C213.782 80.548 212.542 80.228 211.198 80.228C210.398 80.228 209.798 80.34 209.398 80.564C208.998 80.788 208.798 81.076 208.798 81.428C208.798 81.828 209.014 82.108 209.446 82.268C209.878 82.428 210.566 82.58 211.51 82.724C212.566 82.9 213.43 83.092 214.102 83.3C214.774 83.492 215.358 83.852 215.854 84.38C216.35 84.908 216.598 85.644 216.598 86.588C216.598 87.388 216.358 88.1 215.878 88.724C215.398 89.348 214.694 89.836 213.766 90.188C212.854 90.524 211.766 90.692 210.502 90.692ZM220.324 90.692C219.668 90.692 219.116 90.468 218.668 90.02C218.22 89.572 217.996 89.012 217.996 88.34C217.996 87.652 218.22 87.1 218.668 86.684C219.116 86.252 219.668 86.036 220.324 86.036C220.98 86.036 221.532 86.252 221.98 86.684C222.428 87.1 222.652 87.652 222.652 88.34C222.652 89.012 222.428 89.572 221.98 90.02C221.532 90.468 220.98 90.692 220.324 90.692Z" fill="white"/>
<path d="M37.704 123.1H32.504L31.512 125.5H28.856L33.848 114.3H36.408L41.416 125.5H38.696L37.704 123.1ZM36.888 121.132L35.112 116.844L33.336 121.132H36.888ZM47.634 116.764C48.7007 116.764 49.5593 117.084 50.21 117.724C50.8713 118.364 51.202 119.313 51.202 120.572V125.5H48.706V120.956C48.706 120.273 48.5567 119.767 48.258 119.436C47.9593 119.095 47.5273 118.924 46.962 118.924C46.3327 118.924 45.8313 119.121 45.458 119.516C45.0847 119.9 44.898 120.476 44.898 121.244V125.5H42.402V116.892H44.786V117.9C45.1167 117.537 45.5273 117.26 46.018 117.068C46.5087 116.865 47.0473 116.764 47.634 116.764ZM61.8523 116.892L57.9643 126.028C57.5696 127.02 57.0789 127.719 56.4923 128.124C55.9163 128.529 55.2176 128.732 54.3963 128.732C53.9483 128.732 53.5056 128.663 53.0683 128.524C52.6309 128.385 52.2736 128.193 51.9962 127.948L52.9083 126.172C53.1003 126.343 53.3189 126.476 53.5643 126.572C53.8203 126.668 54.0709 126.716 54.3163 126.716C54.6576 126.716 54.9349 126.631 55.1483 126.46C55.3616 126.3 55.5536 126.028 55.7243 125.644L55.7563 125.564L52.0282 116.892H54.6043L57.0203 122.732L59.4523 116.892H61.8523ZM68.6571 125.084C68.4118 125.265 68.1078 125.404 67.7451 125.5C67.3931 125.585 67.0198 125.628 66.6251 125.628C65.6011 125.628 64.8065 125.367 64.2411 124.844C63.6865 124.321 63.4091 123.553 63.4091 122.54V119.004H62.0811V117.084H63.4091V114.988H65.9051V117.084H68.0491V119.004H65.9051V122.508C65.9051 122.871 65.9958 123.153 66.1771 123.356C66.3691 123.548 66.6358 123.644 66.9771 123.644C67.3718 123.644 67.7078 123.537 67.9851 123.324L68.6571 125.084ZM70.0583 116.892H72.5543V125.5H70.0583V116.892ZM71.3063 115.692C70.8476 115.692 70.4743 115.559 70.1863 115.292C69.8983 115.025 69.7543 114.695 69.7543 114.3C69.7543 113.905 69.8983 113.575 70.1863 113.308C70.4743 113.041 70.8476 112.908 71.3063 112.908C71.7649 112.908 72.1383 113.036 72.4263 113.292C72.7143 113.548 72.8583 113.868 72.8583 114.252C72.8583 114.668 72.7143 115.015 72.4263 115.292C72.1383 115.559 71.7649 115.692 71.3063 115.692ZM85.8948 116.764C86.9721 116.764 87.8254 117.084 88.4548 117.724C89.0948 118.353 89.4148 119.303 89.4148 120.572V125.5H86.9188V120.956C86.9188 120.273 86.7748 119.767 86.4868 119.436C86.2094 119.095 85.8094 118.924 85.2868 118.924C84.7001 118.924 84.2361 119.116 83.8948 119.5C83.5534 119.873 83.3828 120.433 83.3828 121.18V125.5H80.8868V120.956C80.8868 119.601 80.3428 118.924 79.2548 118.924C78.6788 118.924 78.2201 119.116 77.8788 119.5C77.5374 119.873 77.3668 120.433 77.3668 121.18V125.5H74.8708V116.892H77.2548V117.884C77.5748 117.521 77.9641 117.244 78.4227 117.052C78.8921 116.86 79.4041 116.764 79.9588 116.764C80.5668 116.764 81.1161 116.887 81.6068 117.132C82.0974 117.367 82.4921 117.713 82.7908 118.172C83.1428 117.724 83.5854 117.377 84.1188 117.132C84.6628 116.887 85.2548 116.764 85.8948 116.764ZM100.178 121.228C100.178 121.26 100.162 121.484 100.13 121.9H93.6178C93.7351 122.433 94.0124 122.855 94.4498 123.164C94.8871 123.473 95.4311 123.628 96.0818 123.628C96.5298 123.628 96.9244 123.564 97.2658 123.436C97.6178 123.297 97.9431 123.084 98.2418 122.796L99.5698 124.236C98.7591 125.164 97.5751 125.628 96.0178 125.628C95.0471 125.628 94.1884 125.441 93.4418 125.068C92.6951 124.684 92.1191 124.156 91.7138 123.484C91.3084 122.812 91.1058 122.049 91.1058 121.196C91.1058 120.353 91.3031 119.596 91.6978 118.924C92.1031 118.241 92.6524 117.713 93.3458 117.34C94.0498 116.956 94.8338 116.764 95.6978 116.764C96.5404 116.764 97.3031 116.945 97.9858 117.308C98.6684 117.671 99.2018 118.193 99.5858 118.876C99.9804 119.548 100.178 120.332 100.178 121.228ZM95.7138 118.652C95.1484 118.652 94.6738 118.812 94.2898 119.132C93.9058 119.452 93.6711 119.889 93.5858 120.444H97.8258C97.7404 119.9 97.5058 119.468 97.1218 119.148C96.7378 118.817 96.2684 118.652 95.7138 118.652ZM102.799 122.524C103.248 122.524 103.616 122.668 103.904 122.956C104.192 123.233 104.336 123.601 104.336 124.06C104.336 124.273 104.309 124.487 104.256 124.7C104.202 124.913 104.085 125.233 103.904 125.66L102.992 127.964H101.408L102.112 125.42C101.845 125.313 101.632 125.143 101.472 124.908C101.322 124.663 101.248 124.38 101.248 124.06C101.248 123.601 101.392 123.233 101.68 122.956C101.978 122.668 102.352 122.524 102.799 122.524ZM114.03 116.764C115.364 116.764 116.388 117.084 117.102 117.724C117.817 118.353 118.174 119.308 118.174 120.588V125.5H115.838V124.428C115.369 125.228 114.494 125.628 113.214 125.628C112.553 125.628 111.977 125.516 111.486 125.292C111.006 125.068 110.638 124.759 110.382 124.364C110.126 123.969 109.998 123.521 109.998 123.02C109.998 122.22 110.297 121.591 110.894 121.132C111.502 120.673 112.436 120.444 113.694 120.444H115.678C115.678 119.9 115.513 119.484 115.182 119.196C114.852 118.897 114.356 118.748 113.694 118.748C113.236 118.748 112.782 118.823 112.334 118.972C111.897 119.111 111.524 119.303 111.214 119.548L110.318 117.804C110.788 117.473 111.348 117.217 111.998 117.036C112.66 116.855 113.337 116.764 114.03 116.764ZM113.838 123.948C114.265 123.948 114.644 123.852 114.974 123.66C115.305 123.457 115.54 123.164 115.678 122.78V121.9H113.966C112.942 121.9 112.43 122.236 112.43 122.908C112.43 123.228 112.553 123.484 112.798 123.676C113.054 123.857 113.401 123.948 113.838 123.948ZM125.665 116.764C126.732 116.764 127.591 117.084 128.241 117.724C128.903 118.364 129.233 119.313 129.233 120.572V125.5H126.737V120.956C126.737 120.273 126.588 119.767 126.289 119.436C125.991 119.095 125.559 118.924 124.993 118.924C124.364 118.924 123.863 119.121 123.489 119.516C123.116 119.9 122.929 120.476 122.929 121.244V125.5H120.433V116.892H122.817V117.9C123.148 117.537 123.559 117.26 124.049 117.068C124.54 116.865 125.079 116.764 125.665 116.764ZM139.884 116.892L135.996 126.028C135.601 127.02 135.11 127.719 134.524 128.124C133.948 128.529 133.249 128.732 132.428 128.732C131.98 128.732 131.537 128.663 131.1 128.524C130.662 128.385 130.305 128.193 130.027 127.948L130.94 126.172C131.132 126.343 131.35 126.476 131.596 126.572C131.852 126.668 132.102 126.716 132.348 126.716C132.689 126.716 132.966 126.631 133.18 126.46C133.393 126.3 133.585 126.028 133.756 125.644L133.788 125.564L130.059 116.892H132.636L135.052 122.732L137.484 116.892H139.884ZM154.523 116.892L151.403 125.5H149.003L147.067 120.156L145.067 125.5H142.667L139.563 116.892H141.915L143.947 122.716L146.059 116.892H148.171L150.219 122.716L152.315 116.892H154.523ZM160.915 116.764C161.982 116.764 162.841 117.084 163.491 117.724C164.153 118.364 164.483 119.313 164.483 120.572V125.5H161.987V120.956C161.987 120.273 161.838 119.767 161.539 119.436C161.241 119.095 160.809 118.924 160.243 118.924C159.614 118.924 159.113 119.121 158.739 119.516C158.366 119.9 158.179 120.476 158.179 121.244V125.5H155.683V113.628H158.179V117.788C158.51 117.457 158.91 117.207 159.379 117.036C159.849 116.855 160.361 116.764 160.915 116.764ZM175.272 121.228C175.272 121.26 175.256 121.484 175.224 121.9H168.712C168.829 122.433 169.106 122.855 169.544 123.164C169.981 123.473 170.525 123.628 171.176 123.628C171.624 123.628 172.018 123.564 172.36 123.436C172.712 123.297 173.037 123.084 173.336 122.796L174.664 124.236C173.853 125.164 172.669 125.628 171.112 125.628C170.141 125.628 169.282 125.441 168.536 125.068C167.789 124.684 167.213 124.156 166.808 123.484C166.402 122.812 166.2 122.049 166.2 121.196C166.2 120.353 166.397 119.596 166.792 118.924C167.197 118.241 167.746 117.713 168.44 117.34C169.144 116.956 169.928 116.764 170.792 116.764C171.634 116.764 172.397 116.945 173.08 117.308C173.762 117.671 174.296 118.193 174.68 118.876C175.074 119.548 175.272 120.332 175.272 121.228ZM170.808 118.652C170.242 118.652 169.768 118.812 169.384 119.132C169 119.452 168.765 119.889 168.68 120.444H172.92C172.834 119.9 172.6 119.468 172.216 119.148C171.832 118.817 171.362 118.652 170.808 118.652ZM179.317 118.028C179.616 117.612 180.016 117.297 180.517 117.084C181.029 116.871 181.616 116.764 182.277 116.764V119.068C182 119.047 181.813 119.036 181.717 119.036C181.003 119.036 180.443 119.239 180.037 119.644C179.632 120.039 179.429 120.636 179.429 121.436V125.5H176.933V116.892H179.317V118.028ZM192.115 121.228C192.115 121.26 192.099 121.484 192.067 121.9H185.555C185.673 122.433 185.95 122.855 186.387 123.164C186.825 123.473 187.369 123.628 188.019 123.628C188.467 123.628 188.862 123.564 189.203 123.436C189.555 123.297 189.881 123.084 190.179 122.796L191.507 124.236C190.697 125.164 189.513 125.628 187.955 125.628C186.985 125.628 186.126 125.441 185.379 125.068C184.633 124.684 184.057 124.156 183.651 123.484C183.246 122.812 183.043 122.049 183.043 121.196C183.043 120.353 183.241 119.596 183.635 118.924C184.041 118.241 184.59 117.713 185.283 117.34C185.987 116.956 186.771 116.764 187.635 116.764C188.478 116.764 189.241 116.945 189.923 117.308C190.606 117.671 191.139 118.193 191.523 118.876C191.918 119.548 192.115 120.332 192.115 121.228ZM187.651 118.652C187.086 118.652 186.611 118.812 186.227 119.132C185.843 119.452 185.609 119.889 185.523 120.444H189.763C189.678 119.9 189.443 119.468 189.059 119.148C188.675 118.817 188.206 118.652 187.651 118.652ZM194.721 125.628C194.284 125.628 193.916 125.479 193.617 125.18C193.318 124.881 193.169 124.508 193.169 124.06C193.169 123.601 193.318 123.233 193.617 122.956C193.916 122.668 194.284 122.524 194.721 122.524C195.158 122.524 195.526 122.668 195.825 122.956C196.124 123.233 196.273 123.601 196.273 124.06C196.273 124.508 196.124 124.881 195.825 125.18C195.526 125.479 195.158 125.628 194.721 125.628Z" fill="white"/>
</svg>
