<svg width="339" height="316" viewBox="0 0 339 316" fill="none" xmlns="http://www.w3.org/2000/svg">
<path fill-rule="evenodd" clip-rule="evenodd" d="M187.087 25.4082C214.426 28.4359 242.839 10.3621 268.093 21.2354C293.77 32.2906 309.513 58.5317 321.999 83.4938C334.04 107.568 341.727 134.53 338.095 161.188C334.644 186.507 317.623 207.052 302.364 227.576C288.493 246.235 271.916 261.583 253.191 275.395C232.495 290.66 212.419 308.051 187.087 312.602C159.67 317.528 128.699 317.496 105.639 301.905C82.7717 286.446 82.5028 253.042 66.1442 230.839C47.0988 204.988 9.54451 192.365 1.96486 161.188C-5.69364 129.688 10.3952 96.861 26.7639 68.8595C43.0928 40.926 63.7009 10.5419 94.9838 2.06356C126.082 -6.36481 155.058 21.861 187.087 25.4082Z" fill="#3366FF" fill-opacity="0.85"/>
<path fill-rule="evenodd" clip-rule="evenodd" d="M249.69 84.6435C246.766 81.2112 244.787 77.0048 245.118 72.2914C246.07 58.7109 264.975 61.6985 268.652 68.5527C272.33 75.407 271.893 92.7935 267.14 94.0185C265.245 94.5071 261.207 93.3103 257.098 90.8334L259.677 109.081H244.447L249.69 84.6435Z" fill="#B28B67"/>
<path fill-rule="evenodd" clip-rule="evenodd" d="M257.859 73.7914C258.442 81.9124 259.984 85.9728 262.486 85.9728C266.238 85.9728 269.421 83.5908 271.068 83.5908C272.268 83.5908 272 85.0927 271.204 86.2062C270.548 87.1249 267.352 88.0105 267.352 89.4348C267.352 90.8591 269.877 89.7572 269.877 90.6019C269.877 91.9992 270.321 94.6263 267.896 94.6263C265.442 94.6263 258.405 93.7319 257.199 90.0893C256.42 87.7384 255.917 82.8671 255.689 75.4751C255.54 75.4575 255.389 75.4484 255.235 75.4484C253.132 75.4484 251.427 77.153 251.427 79.2559C251.427 80.3234 251.867 81.2883 252.575 81.9797C251.693 83.2232 250.706 84.5223 249.575 85.8627C245.324 83.3126 242.17 75.8475 246.326 68.6762C247.474 65.1631 250.075 63.2866 253.146 62.4153C255.633 61.3747 258.216 61.2574 260.396 61.8812C264.669 62.2477 268.485 63.5508 269.566 64.3246C269.566 68.3702 268.782 69.5706 262.087 69.4648C260.441 70.3336 259.177 71.8298 257.859 73.7914Z" fill="#191847"/>
<path fill-rule="evenodd" clip-rule="evenodd" d="M239.37 161.753L262.377 242.49L279.163 301.997H291.407L273.569 161.753H239.37Z" fill="#191847"/>
<path fill-rule="evenodd" clip-rule="evenodd" d="M233.218 161.753C232.685 203.365 230.871 226.062 230.312 229.843C229.753 233.623 221.305 257.675 204.967 301.997H217.65C238.45 259.478 250.06 235.426 252.482 229.843C254.905 224.259 262.38 201.563 273.638 161.753H233.218Z" fill="#2F3676"/>
<path fill-rule="evenodd" clip-rule="evenodd" d="M203.833 313.42L204.468 300.093H217.794C224.113 304.535 232.363 308.131 242.543 310.881V313.42H218.429L210.179 312.15V313.42H203.833Z" fill="#191847"/>
<path fill-rule="evenodd" clip-rule="evenodd" d="M277.446 313.42L278.08 300.093H291.407C297.726 304.535 305.975 308.131 316.156 310.881V313.42H292.041L283.792 312.15V313.42H277.446Z" fill="#191847"/>
<path fill-rule="evenodd" clip-rule="evenodd" d="M292.904 151.352L312.06 167.592C317.433 169.453 321.88 171.611 325.401 174.068C326.214 174.919 327.151 176.594 323.57 176.066C319.99 175.537 316.2 175.142 315.617 176.335C315.035 177.529 317.111 179.149 315.991 180.736C315.244 181.793 312.275 178.803 307.085 171.764L287.668 162.074L292.904 151.352ZM206.16 144.324L217.4 145.956C205.335 172.133 198.867 185.977 197.996 187.487C196.035 190.887 198.341 196.807 199.242 199.942C194.687 201.257 196.142 194.219 190.382 195.974C185.124 197.577 180.786 201.209 175.579 196.89C174.939 196.359 174.4 194.622 176.434 193.611C181.504 191.09 188.947 186.478 190.103 184.778C191.681 182.46 197.034 168.975 206.16 144.324Z" fill="#B28B67"/>
<path fill-rule="evenodd" clip-rule="evenodd" d="M253.138 98.5042L260.102 96.201C269.55 119.802 283.64 142.636 307.181 161.924L301.359 171.967C280.67 159.78 261.085 150.313 253.138 132.025C250.47 125.887 252.92 105.843 253.138 98.5042Z" fill="#C5CFD6"/>
<path fill-rule="evenodd" clip-rule="evenodd" d="M229.217 164.926C249.167 167.041 264.87 167.041 276.326 164.926C277.746 164.663 277.97 162.287 277.311 160.674C267.061 135.56 260.033 113.645 260.033 96.2011C258.152 97.1493 254.86 97.2914 250.158 96.6274C237.521 114.604 231.712 135.231 229.217 164.926Z" fill="#323337"/>
<path fill-rule="evenodd" clip-rule="evenodd" d="M247.017 95.1205H252.283C253.509 102.333 257.377 199.995 269.317 231.942H204.712C206.113 202.675 217.161 167.519 228.354 138.1C218.457 147.157 209.831 162.502 202.476 184.136L190.375 181.03C199.373 142.259 217.872 113.762 245.872 95.5387C245.933 95.3987 245.993 95.2593 246.053 95.1205H246.52C246.691 95.0104 246.863 94.9007 247.035 94.7914L247.017 95.1205Z" fill="#DDE3E9"/>
<path d="M40.7 85.124V87.5H29.684V85.61L36.596 77.276H29.828V74.9H40.43V76.79L33.536 85.124H40.7ZM46.3309 77.672C47.8309 77.672 48.9829 78.032 49.7869 78.752C50.5909 79.46 50.9929 80.534 50.9929 81.974V87.5H48.3649V86.294C47.8369 87.194 46.8529 87.644 45.4129 87.644C44.6689 87.644 44.0209 87.518 43.4689 87.266C42.9289 87.014 42.5149 86.666 42.2269 86.222C41.9389 85.778 41.7949 85.274 41.7949 84.71C41.7949 83.81 42.1309 83.102 42.8029 82.586C43.4869 82.07 44.5369 81.812 45.9529 81.812H48.1849C48.1849 81.2 47.9989 80.732 47.6269 80.408C47.2549 80.072 46.6969 79.904 45.9529 79.904C45.4369 79.904 44.9269 79.988 44.4229 80.156C43.9309 80.312 43.5109 80.528 43.1629 80.804L42.1549 78.842C42.6829 78.47 43.3129 78.182 44.0449 77.978C44.7889 77.774 45.5509 77.672 46.3309 77.672ZM46.1149 85.754C46.5949 85.754 47.0209 85.646 47.3929 85.43C47.7649 85.202 48.0289 84.872 48.1849 84.44V83.45H46.2589C45.1069 83.45 44.5309 83.828 44.5309 84.584C44.5309 84.944 44.6689 85.232 44.9449 85.448C45.2329 85.652 45.6229 85.754 46.1149 85.754ZM65.9363 77.672C67.1483 77.672 68.1083 78.032 68.8163 78.752C69.5363 79.46 69.8963 80.528 69.8963 81.956V87.5H67.0883V82.388C67.0883 81.62 66.9263 81.05 66.6023 80.678C66.2903 80.294 65.8403 80.102 65.2523 80.102C64.5923 80.102 64.0703 80.318 63.6863 80.75C63.3023 81.17 63.1103 81.8 63.1103 82.64V87.5H60.3023V82.388C60.3023 80.864 59.6903 80.102 58.4663 80.102C57.8183 80.102 57.3023 80.318 56.9183 80.75C56.5343 81.17 56.3423 81.8 56.3423 82.64V87.5H53.5343V77.816H56.2163V78.932C56.5763 78.524 57.0143 78.212 57.5303 77.996C58.0583 77.78 58.6343 77.672 59.2583 77.672C59.9423 77.672 60.5603 77.81 61.1123 78.086C61.6643 78.35 62.1083 78.74 62.4443 79.256C62.8403 78.752 63.3383 78.362 63.9383 78.086C64.5503 77.81 65.2163 77.672 65.9363 77.672ZM77.1267 87.644C76.1067 87.644 75.1887 87.434 74.3727 87.014C73.5687 86.582 72.9387 85.988 72.4827 85.232C72.0267 84.476 71.7987 83.618 71.7987 82.658C71.7987 81.698 72.0267 80.84 72.4827 80.084C72.9387 79.328 73.5687 78.74 74.3727 78.32C75.1887 77.888 76.1067 77.672 77.1267 77.672C78.1467 77.672 79.0587 77.888 79.8627 78.32C80.6667 78.74 81.2967 79.328 81.7527 80.084C82.2087 80.84 82.4367 81.698 82.4367 82.658C82.4367 83.618 82.2087 84.476 81.7527 85.232C81.2967 85.988 80.6667 86.582 79.8627 87.014C79.0587 87.434 78.1467 87.644 77.1267 87.644ZM77.1267 85.34C77.8467 85.34 78.4347 85.1 78.8907 84.62C79.3587 84.128 79.5927 83.474 79.5927 82.658C79.5927 81.842 79.3587 81.194 78.8907 80.714C78.4347 80.222 77.8467 79.976 77.1267 79.976C76.4067 79.976 75.8127 80.222 75.3447 80.714C74.8767 81.194 74.6427 81.842 74.6427 82.658C74.6427 83.474 74.8767 84.128 75.3447 84.62C75.8127 85.1 76.4067 85.34 77.1267 85.34ZM77.8827 73.982H80.9067L77.6487 76.574H75.4527L77.8827 73.982ZM99.6019 77.816L96.0919 87.5H93.3919L91.2139 81.488L88.9639 87.5H86.2639L82.7719 77.816H85.4179L87.7039 84.368L90.0799 77.816H92.4559L94.7599 84.368L97.1179 77.816H99.6019ZM109.263 87.644C108.459 87.644 107.673 87.548 106.905 87.356C106.137 87.152 105.525 86.9 105.069 86.6L106.005 84.584C106.437 84.86 106.959 85.088 107.571 85.268C108.183 85.436 108.783 85.52 109.371 85.52C110.559 85.52 111.153 85.226 111.153 84.638C111.153 84.362 110.991 84.164 110.667 84.044C110.343 83.924 109.845 83.822 109.173 83.738C108.381 83.618 107.727 83.48 107.211 83.324C106.695 83.168 106.245 82.892 105.861 82.496C105.489 82.1 105.303 81.536 105.303 80.804C105.303 80.192 105.477 79.652 105.825 79.184C106.185 78.704 106.701 78.332 107.373 78.068C108.057 77.804 108.861 77.672 109.785 77.672C110.469 77.672 111.147 77.75 111.819 77.906C112.503 78.05 113.067 78.254 113.511 78.518L112.575 80.516C111.723 80.036 110.793 79.796 109.785 79.796C109.185 79.796 108.735 79.88 108.435 80.048C108.135 80.216 107.985 80.432 107.985 80.696C107.985 80.996 108.147 81.206 108.471 81.326C108.795 81.446 109.311 81.56 110.019 81.668C110.811 81.8 111.459 81.944 111.963 82.1C112.467 82.244 112.905 82.514 113.277 82.91C113.649 83.306 113.835 83.858 113.835 84.566C113.835 85.166 113.655 85.7 113.295 86.168C112.935 86.636 112.407 87.002 111.711 87.266C111.027 87.518 110.211 87.644 109.263 87.644ZM123.541 85.34V87.5H114.901V85.808L119.833 79.976H115.027V77.816H123.379V79.508L118.447 85.34H123.541ZM129.898 87.644C128.866 87.644 127.936 87.434 127.108 87.014C126.292 86.582 125.65 85.988 125.182 85.232C124.726 84.476 124.498 83.618 124.498 82.658C124.498 81.698 124.726 80.84 125.182 80.084C125.65 79.328 126.292 78.74 127.108 78.32C127.936 77.888 128.866 77.672 129.898 77.672C130.918 77.672 131.806 77.888 132.562 78.32C133.33 78.74 133.888 79.346 134.236 80.138L132.058 81.308C131.554 80.42 130.828 79.976 129.88 79.976C129.148 79.976 128.542 80.216 128.062 80.696C127.582 81.176 127.342 81.83 127.342 82.658C127.342 83.486 127.582 84.14 128.062 84.62C128.542 85.1 129.148 85.34 129.88 85.34C130.84 85.34 131.566 84.896 132.058 84.008L134.236 85.196C133.888 85.964 133.33 86.564 132.562 86.996C131.806 87.428 130.918 87.644 129.898 87.644ZM143.756 85.34V87.5H135.116V85.808L140.048 79.976H135.242V77.816H143.594V79.508L138.662 85.34H143.756ZM154.919 82.694C154.919 82.73 154.901 82.982 154.865 83.45H147.539C147.671 84.05 147.983 84.524 148.475 84.872C148.967 85.22 149.579 85.394 150.311 85.394C150.815 85.394 151.259 85.322 151.643 85.178C152.039 85.022 152.405 84.782 152.741 84.458L154.235 86.078C153.323 87.122 151.991 87.644 150.239 87.644C149.147 87.644 148.181 87.434 147.341 87.014C146.501 86.582 145.853 85.988 145.397 85.232C144.941 84.476 144.713 83.618 144.713 82.658C144.713 81.71 144.935 80.858 145.379 80.102C145.835 79.334 146.453 78.74 147.233 78.32C148.025 77.888 148.907 77.672 149.879 77.672C150.827 77.672 151.685 77.876 152.453 78.284C153.221 78.692 153.821 79.28 154.253 80.048C154.697 80.804 154.919 81.686 154.919 82.694ZM149.897 79.796C149.261 79.796 148.727 79.976 148.295 80.336C147.863 80.696 147.599 81.188 147.503 81.812H152.273C152.177 81.2 151.913 80.714 151.481 80.354C151.049 79.982 150.521 79.796 149.897 79.796ZM162.512 77.672C163.412 77.672 164.228 77.882 164.96 78.302C165.704 78.71 166.286 79.292 166.706 80.048C167.126 80.792 167.336 81.662 167.336 82.658C167.336 83.654 167.126 84.53 166.706 85.286C166.286 86.03 165.704 86.612 164.96 87.032C164.228 87.44 163.412 87.644 162.512 87.644C161.276 87.644 160.304 87.254 159.596 86.474V90.992H156.788V77.816H159.47V78.932C160.166 78.092 161.18 77.672 162.512 77.672ZM162.026 85.34C162.746 85.34 163.334 85.1 163.79 84.62C164.258 84.128 164.492 83.474 164.492 82.658C164.492 81.842 164.258 81.194 163.79 80.714C163.334 80.222 162.746 79.976 162.026 79.976C161.306 79.976 160.712 80.222 160.244 80.714C159.788 81.194 159.56 81.842 159.56 82.658C159.56 83.474 159.788 84.128 160.244 84.62C160.712 85.1 161.306 85.34 162.026 85.34ZM169.216 77.816H172.024V87.5H169.216V77.816ZM170.62 76.466C170.104 76.466 169.684 76.316 169.36 76.016C169.036 75.716 168.874 75.344 168.874 74.9C168.874 74.456 169.036 74.084 169.36 73.784C169.684 73.484 170.104 73.334 170.62 73.334C171.136 73.334 171.556 73.478 171.88 73.766C172.204 74.054 172.366 74.414 172.366 74.846C172.366 75.314 172.204 75.704 171.88 76.016C171.556 76.316 171.136 76.466 170.62 76.466ZM179.238 87.644C178.218 87.644 177.3 87.434 176.484 87.014C175.68 86.582 175.05 85.988 174.594 85.232C174.138 84.476 173.91 83.618 173.91 82.658C173.91 81.698 174.138 80.84 174.594 80.084C175.05 79.328 175.68 78.74 176.484 78.32C177.3 77.888 178.218 77.672 179.238 77.672C180.258 77.672 181.17 77.888 181.974 78.32C182.778 78.74 183.408 79.328 183.864 80.084C184.32 80.84 184.548 81.698 184.548 82.658C184.548 83.618 184.32 84.476 183.864 85.232C183.408 85.988 182.778 86.582 181.974 87.014C181.17 87.434 180.258 87.644 179.238 87.644ZM179.238 85.34C179.958 85.34 180.546 85.1 181.002 84.62C181.47 84.128 181.704 83.474 181.704 82.658C181.704 81.842 181.47 81.194 181.002 80.714C180.546 80.222 179.958 79.976 179.238 79.976C178.518 79.976 177.924 80.222 177.456 80.714C176.988 81.194 176.754 81.842 176.754 82.658C176.754 83.474 176.988 84.128 177.456 84.62C177.924 85.1 178.518 85.34 179.238 85.34ZM192.311 77.672C193.511 77.672 194.477 78.032 195.209 78.752C195.953 79.472 196.325 80.54 196.325 81.956V87.5H193.517V82.388C193.517 81.62 193.349 81.05 193.013 80.678C192.677 80.294 192.191 80.102 191.555 80.102C190.847 80.102 190.283 80.324 189.863 80.768C189.443 81.2 189.233 81.848 189.233 82.712V87.5H186.425V77.816H189.107V78.95C189.479 78.542 189.941 78.23 190.493 78.014C191.045 77.786 191.651 77.672 192.311 77.672ZM203.028 83.702L201.678 85.034V87.5H198.87V74.144H201.678V81.704L205.782 77.816H209.13L205.098 81.92L209.49 87.5H206.088L203.028 83.702ZM210.683 77.816H213.491V87.5H210.683V77.816ZM212.087 76.466C211.571 76.466 211.151 76.316 210.827 76.016C210.503 75.716 210.341 75.344 210.341 74.9C210.341 74.456 210.503 74.084 210.827 73.784C211.151 73.484 211.571 73.334 212.087 73.334C212.603 73.334 213.023 73.478 213.347 73.766C213.671 74.054 213.833 74.414 213.833 74.846C213.833 75.314 213.671 75.704 213.347 76.016C213.023 76.316 212.603 76.466 212.087 76.466ZM217.159 87.644C216.667 87.644 216.253 87.476 215.917 87.14C215.581 86.804 215.413 86.384 215.413 85.88C215.413 85.364 215.581 84.95 215.917 84.638C216.253 84.314 216.667 84.152 217.159 84.152C217.651 84.152 218.065 84.314 218.401 84.638C218.737 84.95 218.905 85.364 218.905 85.88C218.905 86.384 218.737 86.804 218.401 87.14C218.065 87.476 217.651 87.644 217.159 87.644Z" fill="white"/>
<path d="M39.4 123.388V125.5H29.608V123.82L35.752 116.412H29.736V114.3H39.16V115.98L33.032 123.388H39.4ZM44.4053 116.764C45.7386 116.764 46.7626 117.084 47.4773 117.724C48.1919 118.353 48.5493 119.308 48.5493 120.588V125.5H46.2133V124.428C45.7439 125.228 44.8693 125.628 43.5893 125.628C42.9279 125.628 42.3519 125.516 41.8613 125.292C41.3813 125.068 41.0133 124.759 40.7573 124.364C40.5013 123.969 40.3733 123.521 40.3733 123.02C40.3733 122.22 40.6719 121.591 41.2693 121.132C41.8773 120.673 42.8106 120.444 44.0693 120.444H46.0533C46.0533 119.9 45.8879 119.484 45.5573 119.196C45.2266 118.897 44.7306 118.748 44.0693 118.748C43.6106 118.748 43.1573 118.823 42.7093 118.972C42.2719 119.111 41.8986 119.303 41.5893 119.548L40.6933 117.804C41.1626 117.473 41.7226 117.217 42.3733 117.036C43.0346 116.855 43.7119 116.764 44.4053 116.764ZM44.2133 123.948C44.6399 123.948 45.0186 123.852 45.3493 123.66C45.6799 123.457 45.9146 123.164 46.0533 122.78V121.9H44.3413C43.3173 121.9 42.8053 122.236 42.8053 122.908C42.8053 123.228 42.9279 123.484 43.1733 123.676C43.4293 123.857 43.7759 123.948 44.2133 123.948ZM64.476 116.892L61.356 125.5H58.956L57.02 120.156L55.02 125.5H52.62L49.516 116.892H51.868L53.9 122.716L56.012 116.892H58.124L60.172 122.716L62.268 116.892H64.476ZM68.4074 125.628C67.6927 125.628 66.994 125.543 66.3114 125.372C65.6287 125.191 65.0847 124.967 64.6794 124.7L65.5114 122.908C65.8954 123.153 66.3594 123.356 66.9034 123.516C67.4474 123.665 67.9807 123.74 68.5034 123.74C69.5594 123.74 70.0874 123.479 70.0874 122.956C70.0874 122.711 69.9434 122.535 69.6554 122.428C69.3674 122.321 68.9247 122.231 68.3274 122.156C67.6234 122.049 67.042 121.927 66.5834 121.788C66.1247 121.649 65.7247 121.404 65.3834 121.052C65.0527 120.7 64.8874 120.199 64.8874 119.548C64.8874 119.004 65.042 118.524 65.3514 118.108C65.6714 117.681 66.13 117.351 66.7274 117.116C67.3354 116.881 68.05 116.764 68.8714 116.764C69.4794 116.764 70.082 116.833 70.6794 116.972C71.2874 117.1 71.7887 117.281 72.1834 117.516L71.3514 119.292C70.594 118.865 69.7674 118.652 68.8714 118.652C68.338 118.652 67.938 118.727 67.6714 118.876C67.4047 119.025 67.2714 119.217 67.2714 119.452C67.2714 119.719 67.4154 119.905 67.7034 120.012C67.9914 120.119 68.45 120.22 69.0794 120.316C69.7834 120.433 70.3594 120.561 70.8074 120.7C71.2554 120.828 71.6447 121.068 71.9754 121.42C72.306 121.772 72.4714 122.263 72.4714 122.892C72.4714 123.425 72.3114 123.9 71.9914 124.316C71.6714 124.732 71.202 125.057 70.5834 125.292C69.9754 125.516 69.25 125.628 68.4074 125.628ZM81.0994 123.58V125.5H73.4194V123.996L77.8034 118.812H73.5314V116.892H80.9554V118.396L76.5714 123.58H81.0994ZM91.0215 121.228C91.0215 121.26 91.0055 121.484 90.9735 121.9H84.4615C84.5788 122.433 84.8562 122.855 85.2935 123.164C85.7308 123.473 86.2748 123.628 86.9255 123.628C87.3735 123.628 87.7682 123.564 88.1095 123.436C88.4615 123.297 88.7868 123.084 89.0855 122.796L90.4135 124.236C89.6028 125.164 88.4188 125.628 86.8615 125.628C85.8908 125.628 85.0322 125.441 84.2855 125.068C83.5388 124.684 82.9628 124.156 82.5575 123.484C82.1522 122.812 81.9495 122.049 81.9495 121.196C81.9495 120.353 82.1468 119.596 82.5415 118.924C82.9468 118.241 83.4962 117.713 84.1895 117.34C84.8935 116.956 85.6775 116.764 86.5415 116.764C87.3842 116.764 88.1468 116.945 88.8295 117.308C89.5122 117.671 90.0455 118.193 90.4295 118.876C90.8242 119.548 91.0215 120.332 91.0215 121.228ZM86.5575 118.652C85.9922 118.652 85.5175 118.812 85.1335 119.132C84.7495 119.452 84.5148 119.889 84.4295 120.444H88.6695C88.5842 119.9 88.3495 119.468 87.9655 119.148C87.5815 118.817 87.1122 118.652 86.5575 118.652ZM97.2145 116.892H99.7105V125.5H97.2145V116.892ZM98.4625 115.692C98.0038 115.692 97.6305 115.559 97.3425 115.292C97.0545 115.025 96.9105 114.695 96.9105 114.3C96.9105 113.905 97.0545 113.575 97.3425 113.308C97.6305 113.041 98.0038 112.908 98.4625 112.908C98.9212 112.908 99.2945 113.036 99.5825 113.292C99.8705 113.548 100.015 113.868 100.015 114.252C100.015 114.668 99.8705 115.015 99.5825 115.292C99.2945 115.559 98.9212 115.692 98.4625 115.692ZM120.382 116.892L117.262 125.5H114.862L112.926 120.156L110.926 125.5H108.526L105.422 116.892H107.774L109.806 122.716L111.918 116.892H114.03L116.078 122.716L118.174 116.892H120.382ZM124.314 125.628C123.599 125.628 122.9 125.543 122.218 125.372C121.535 125.191 120.991 124.967 120.586 124.7L121.418 122.908C121.802 123.153 122.266 123.356 122.81 123.516C123.354 123.665 123.887 123.74 124.41 123.74C125.466 123.74 125.994 123.479 125.994 122.956C125.994 122.711 125.85 122.535 125.562 122.428C125.274 122.321 124.831 122.231 124.234 122.156C123.53 122.049 122.948 121.927 122.49 121.788C122.031 121.649 121.631 121.404 121.29 121.052C120.959 120.7 120.794 120.199 120.794 119.548C120.794 119.004 120.948 118.524 121.258 118.108C121.578 117.681 122.036 117.351 122.634 117.116C123.242 116.881 123.956 116.764 124.778 116.764C125.386 116.764 125.988 116.833 126.586 116.972C127.194 117.1 127.695 117.281 128.09 117.516L127.258 119.292C126.5 118.865 125.674 118.652 124.778 118.652C124.244 118.652 123.844 118.727 123.578 118.876C123.311 119.025 123.178 119.217 123.178 119.452C123.178 119.719 123.322 119.905 123.61 120.012C123.898 120.119 124.356 120.22 124.986 120.316C125.69 120.433 126.266 120.561 126.714 120.7C127.162 120.828 127.551 121.068 127.882 121.42C128.212 121.772 128.378 122.263 128.378 122.892C128.378 123.425 128.218 123.9 127.898 124.316C127.578 124.732 127.108 125.057 126.49 125.292C125.882 125.516 125.156 125.628 124.314 125.628ZM137.006 123.58V125.5H129.326V123.996L133.71 118.812H129.438V116.892H136.862V118.396L132.478 123.58H137.006ZM146.928 121.228C146.928 121.26 146.912 121.484 146.88 121.9H140.368C140.485 122.433 140.762 122.855 141.2 123.164C141.637 123.473 142.181 123.628 142.832 123.628C143.28 123.628 143.674 123.564 144.016 123.436C144.368 123.297 144.693 123.084 144.992 122.796L146.336 124.236C146.122 124.46 145.904 124.652 145.68 124.812C145.008 125.303 144.544 125.729 144.288 126.092C144.032 126.455 143.904 126.801 143.904 127.132C143.904 127.388 143.984 127.585 144.144 127.724C144.314 127.873 144.544 127.948 144.832 127.948C145.173 127.948 145.488 127.868 145.776 127.708L146.144 128.844C145.941 128.951 145.69 129.036 145.392 129.1C145.104 129.175 144.816 129.212 144.528 129.212C143.845 129.212 143.306 129.041 142.912 128.7C142.517 128.369 142.32 127.921 142.32 127.356C142.32 127.057 142.384 126.753 142.512 126.444C142.65 126.145 142.848 125.868 143.104 125.612C143.029 125.623 142.917 125.628 142.768 125.628C141.797 125.628 140.938 125.441 140.192 125.068C139.445 124.684 138.869 124.156 138.464 123.484C138.058 122.812 137.856 122.049 137.856 121.196C137.856 120.353 138.053 119.596 138.448 118.924C138.853 118.241 139.402 117.713 140.096 117.34C140.8 116.956 141.584 116.764 142.448 116.764C143.29 116.764 144.053 116.945 144.736 117.308C145.418 117.671 145.952 118.193 146.336 118.876C146.73 119.548 146.928 120.332 146.928 121.228ZM142.464 118.652C141.898 118.652 141.424 118.812 141.04 119.132C140.656 119.452 140.421 119.889 140.336 120.444H144.576C144.49 119.9 144.256 119.468 143.872 119.148C143.488 118.817 143.018 118.652 142.464 118.652ZM157.358 113.628V125.5H154.974V124.508C154.355 125.255 153.459 125.628 152.286 125.628C151.475 125.628 150.739 125.447 150.078 125.084C149.427 124.721 148.915 124.204 148.542 123.532C148.168 122.86 147.982 122.081 147.982 121.196C147.982 120.311 148.168 119.532 148.542 118.86C148.915 118.188 149.427 117.671 150.078 117.308C150.739 116.945 151.475 116.764 152.286 116.764C153.384 116.764 154.243 117.111 154.862 117.804V113.628H157.358ZM152.718 123.58C153.347 123.58 153.87 123.367 154.286 122.94C154.702 122.503 154.91 121.921 154.91 121.196C154.91 120.471 154.702 119.895 154.286 119.468C153.87 119.031 153.347 118.812 152.718 118.812C152.078 118.812 151.55 119.031 151.134 119.468C150.718 119.895 150.51 120.471 150.51 121.196C150.51 121.921 150.718 122.503 151.134 122.94C151.55 123.367 152.078 123.58 152.718 123.58ZM166.756 123.58V125.5H159.076V123.996L163.46 118.812H159.188V116.892H166.612V118.396L162.228 123.58H166.756ZM168.355 116.892H170.851V125.5H168.355V116.892ZM169.603 115.692C169.144 115.692 168.771 115.559 168.483 115.292C168.195 115.025 168.051 114.695 168.051 114.3C168.051 113.905 168.195 113.575 168.483 113.308C168.771 113.041 169.144 112.908 169.603 112.908C170.062 112.908 170.435 113.036 170.723 113.292C171.011 113.548 171.155 113.868 171.155 114.252C171.155 114.668 171.011 115.015 170.723 115.292C170.435 115.559 170.062 115.692 169.603 115.692ZM181.6 121.228C181.6 121.26 181.584 121.484 181.552 121.9H175.04C175.157 122.433 175.434 122.855 175.872 123.164C176.309 123.473 176.853 123.628 177.504 123.628C177.952 123.628 178.346 123.564 178.688 123.436C179.04 123.297 179.365 123.084 179.664 122.796L180.992 124.236C180.181 125.164 178.997 125.628 177.44 125.628C176.469 125.628 175.61 125.441 174.864 125.068C174.117 124.684 173.541 124.156 173.136 123.484C172.73 122.812 172.528 122.049 172.528 121.196C172.528 120.353 172.725 119.596 173.12 118.924C173.525 118.241 174.074 117.713 174.768 117.34C175.472 116.956 176.256 116.764 177.12 116.764C177.962 116.764 178.725 116.945 179.408 117.308C180.09 117.671 180.624 118.193 181.008 118.876C181.402 119.548 181.6 120.332 181.6 121.228ZM177.136 118.652C176.57 118.652 176.096 118.812 175.712 119.132C175.328 119.452 175.093 119.889 175.008 120.444H179.248C179.162 119.9 178.928 119.468 178.544 119.148C178.16 118.817 177.69 118.652 177.136 118.652ZM184.205 125.628C183.768 125.628 183.4 125.479 183.101 125.18C182.803 124.881 182.653 124.508 182.653 124.06C182.653 123.601 182.803 123.233 183.101 122.956C183.4 122.668 183.768 122.524 184.205 122.524C184.643 122.524 185.011 122.668 185.309 122.956C185.608 123.233 185.757 123.601 185.757 124.06C185.757 124.508 185.608 124.881 185.309 125.18C185.011 125.479 184.643 125.628 184.205 125.628Z" fill="white"/>
</svg>
